<svg width="20" height="13" viewBox="0 0 20 13" fill="none" xmlns="http://www.w3.org/2000/svg">
<path d="M13.0582 0.835561H18.0488V2.05367H13.0582V0.835561ZM8.05754 5.65514C9.16073 5.12411 9.73859 4.31623 9.73859 3.06792C9.73859 0.598987 7.91245 0 5.80363 0H0V12.3925H5.96623C8.20263 12.3925 10.3014 11.3103 10.3014 8.79353C10.3014 7.23818 9.57098 6.08802 8.05754 5.65514ZM2.70669 2.11407H5.24578C6.22389 2.11407 7.10194 2.3884 7.10194 3.531C7.10194 4.58301 6.41901 5.00582 5.45091 5.00582H2.70669V2.11407ZM5.596 10.2885H2.70419V6.87577H5.65353C6.84428 6.87577 7.59725 7.3766 7.59725 8.64504C7.59725 9.89335 6.69919 10.2885 5.596 10.2885ZM20 8.03599C20 5.38082 18.4565 3.16859 15.6648 3.16859C12.9506 3.16859 11.1044 5.22478 11.1044 7.92022C11.1044 10.7138 12.853 12.6316 15.6648 12.6316C17.7936 12.6316 19.172 11.6677 19.8349 9.61148H17.676C17.4409 10.3791 16.4853 10.7818 15.7423 10.7818C14.3064 10.7818 13.556 9.93614 13.556 8.49907H19.9825C19.99 8.35058 20 8.19455 20 8.03599ZM13.556 6.94372C13.6335 5.76336 14.4165 5.02595 15.5872 5.02595C16.818 5.02595 17.4334 5.7533 17.541 6.94372H13.556Z" fill="white"/>
</svg>
