<svg width="20" height="20" viewBox="0 0 20 20" fill="none" xmlns="http://www.w3.org/2000/svg">
<path d="M10 0C15.5144 0 20 4.48558 20 10C20 15.5144 15.5144 20 10 20C4.48558 20 0 15.5144 0 10C0 4.48558 4.48558 0 10 0ZM3.38702 4.61058C2.19711 6.0649 1.47596 7.91587 1.45914 9.93269C1.74039 9.8726 4.5649 9.30048 7.40625 9.65865C7.46635 9.51202 7.52644 9.36539 7.58894 9.21875C7.76683 8.80289 7.95673 8.38702 8.15625 7.98077C5 6.6899 3.56731 4.85577 3.38702 4.61058ZM10 1.47115C7.82933 1.47115 5.84615 2.28606 4.33894 3.6226C4.49279 3.84135 5.77885 5.56971 8.8149 6.70914C10.2139 4.13702 11.7644 2.02644 12.0024 1.70913C11.3462 1.55048 10.6755 1.47115 10 1.47115ZM13.6322 2.28365C13.4062 2.59135 11.8798 4.70913 10.4663 7.22356C14.4615 8.28365 17.9808 8.26923 18.363 8.26442C17.8077 5.61298 16.0216 3.41106 13.6322 2.28365ZM18.5409 10.012C18.5409 9.92548 18.5385 9.83654 18.5361 9.75C18.1635 9.75721 14.024 9.8101 9.75721 8.53365C9.51202 9.01202 9.27885 9.4976 9.0649 9.98317C9.17788 10.0144 9.29086 10.0481 9.40144 10.0841C13.8077 11.512 16.1514 15.3942 16.3462 15.7236C17.7091 14.2091 18.5409 12.2067 18.5409 10.012ZM10 18.5529C11.976 18.5529 13.7957 17.8798 15.2428 16.75C15.0889 16.4351 13.3606 13.0962 8.54327 11.4159L8.48798 11.3966C7.28846 14.512 6.79327 17.125 6.66586 17.875C7.71957 18.3254 8.85408 18.556 10 18.5529ZM5.22836 17.0938C5.3149 16.5745 5.76923 14.0745 6.88702 11.0048C4.20913 10.5769 1.85817 11.2788 1.56731 11.3702C1.94711 13.7452 3.31009 15.7981 5.22836 17.0938Z" fill="white"/>
</svg>
