<svg width="98" height="80" viewBox="0 0 98 80" fill="none" xmlns="http://www.w3.org/2000/svg">
<path d="M93.1 0H24.5C23.2004 0 21.9541 0.526784 21.0352 1.46447C20.1162 2.40215 19.6 3.67392 19.6 5V20H44.1V10H73.5V60H93.1C94.3996 60 95.6459 59.4732 96.5648 58.5355C97.4838 57.5979 98 56.3261 98 55V5C98 3.67392 97.4838 2.40215 96.5648 1.46447C95.6459 0.526784 94.3996 0 93.1 0V0ZM35.525 16.0938C35.525 16.4667 35.3798 16.8244 35.1214 17.0881C34.8629 17.3518 34.5124 17.5 34.1469 17.5H29.5531C29.1876 17.5 28.8371 17.3518 28.5786 17.0881C28.3202 16.8244 28.175 16.4667 28.175 16.0938V11.4062C28.175 11.0333 28.3202 10.6756 28.5786 10.4119C28.8371 10.1482 29.1876 10 29.5531 10H34.1469C34.5124 10 34.8629 10.1482 35.1214 10.4119C35.3798 10.6756 35.525 11.0333 35.525 11.4062V16.0938ZM89.425 48.5938C89.425 48.9667 89.2798 49.3244 89.0214 49.5881C88.7629 49.8518 88.4124 50 88.0469 50H83.4531C83.0876 50 82.7371 49.8518 82.4786 49.5881C82.2202 49.3244 82.075 48.9667 82.075 48.5938V43.9062C82.075 43.5333 82.2202 43.1756 82.4786 42.9119C82.7371 42.6482 83.0876 42.5 83.4531 42.5H88.0469C88.4124 42.5 88.7629 42.6482 89.0214 42.9119C89.2798 43.1756 89.425 43.5333 89.425 43.9062V48.5938ZM89.425 32.3438C89.425 32.7167 89.2798 33.0744 89.0214 33.3381C88.7629 33.6018 88.4124 33.75 88.0469 33.75H83.4531C83.0876 33.75 82.7371 33.6018 82.4786 33.3381C82.2202 33.0744 82.075 32.7167 82.075 32.3438V27.6562C82.075 27.2833 82.2202 26.9256 82.4786 26.6619C82.7371 26.3982 83.0876 26.25 83.4531 26.25H88.0469C88.4124 26.25 88.7629 26.3982 89.0214 26.6619C89.2798 26.9256 89.425 27.2833 89.425 27.6562V32.3438ZM89.425 16.0938C89.425 16.4667 89.2798 16.8244 89.0214 17.0881C88.7629 17.3518 88.4124 17.5 88.0469 17.5H83.4531C83.0876 17.5 82.7371 17.3518 82.4786 17.0881C82.2202 16.8244 82.075 16.4667 82.075 16.0938V11.4062C82.075 11.0333 82.2202 10.6756 82.4786 10.4119C82.7371 10.1482 83.0876 10 83.4531 10H88.0469C88.4124 10 88.7629 10.1482 89.0214 10.4119C89.2798 10.6756 89.425 11.0333 89.425 11.4062V16.0938ZM63.7 25H4.9C3.60044 25 2.3541 25.5268 1.43518 26.4645C0.516249 27.4021 0 28.6739 0 30L0 75C0 76.3261 0.516249 77.5979 1.43518 78.5355C2.3541 79.4732 3.60044 80 4.9 80H63.7C64.9996 80 66.2459 79.4732 67.1648 78.5355C68.0838 77.5979 68.6 76.3261 68.6 75V30C68.6 28.6739 68.0838 27.4021 67.1648 26.4645C66.2459 25.5268 64.9996 25 63.7 25ZM14.7 35C15.6691 35 16.6165 35.2932 17.4223 35.8427C18.2281 36.3921 18.8561 37.173 19.227 38.0866C19.5979 39.0002 19.6949 40.0055 19.5058 40.9755C19.3168 41.9454 18.8501 42.8363 18.1648 43.5355C17.4795 44.2348 16.6064 44.711 15.6559 44.9039C14.7054 45.0969 13.7202 44.9978 12.8249 44.6194C11.9295 44.241 11.1642 43.6001 10.6258 42.7779C10.0874 41.9556 9.8 40.9889 9.8 40C9.8 38.6739 10.3162 37.4021 11.2352 36.4645C12.1541 35.5268 13.4004 35 14.7 35ZM58.8 70H9.8V65L19.6 55L24.5 60L44.1 40L58.8 55V70Z" fill="#2F80ED"/>
</svg>
