<svg width="16" height="15" viewBox="0 0 16 15" fill="none" xmlns="http://www.w3.org/2000/svg">
<path d="M3.63213 15V4.87953H0.202355V15H3.63213ZM1.91768 3.49692C3.11371 3.49692 3.85817 2.71978 3.85817 1.74862C3.83589 0.755564 3.11375 0 1.94038 0C0.767193 0 0 0.755579 0 1.74862C0 2.71983 0.744282 3.49692 1.89529 3.49692H1.91758H1.91768ZM5.53049 15H8.96027V9.34823C8.96027 9.04576 8.98255 8.7436 9.07312 8.52737C9.32106 7.92304 9.8854 7.29712 10.8328 7.29712C12.0739 7.29712 12.5704 8.2252 12.5704 9.5857V14.9999H16V9.19694C16 6.08833 14.3079 4.64193 12.0513 4.64193C10.2011 4.64193 9.38876 5.65625 8.93745 6.34711H8.96034V4.87932H5.53057C5.57558 5.82896 5.53057 14.9998 5.53057 14.9998L5.53049 15Z" fill="#E94368"/>
</svg>
