<svg width="50" height="80" viewBox="0 0 50 80" fill="none" xmlns="http://www.w3.org/2000/svg">
<path d="M42.4158 0H7.48515C3.35272 0 0 3.35938 0 7.5V72.5C0 76.6406 3.35272 80 7.48515 80H42.4158C46.5483 80 49.901 76.6406 49.901 72.5V7.5C49.901 3.35938 46.5483 0 42.4158 0ZM24.9505 75C22.1903 75 19.9604 72.7656 19.9604 70C19.9604 67.2344 22.1903 65 24.9505 65C27.7106 65 29.9406 67.2344 29.9406 70C29.9406 72.7656 27.7106 75 24.9505 75ZM42.4158 58.125C42.4158 59.1562 41.5738 60 40.5446 60H9.35644C8.32723 60 7.48515 59.1562 7.48515 58.125V9.375C7.48515 8.34375 8.32723 7.5 9.35644 7.5H40.5446C41.5738 7.5 42.4158 8.34375 42.4158 9.375V58.125Z" fill="#2F80ED"/>
</svg>
