<svg width="99" height="80" viewBox="0 0 99 80" fill="none" xmlns="http://www.w3.org/2000/svg">
<path d="M39.45 40.8828C40.4167 41.8594 41.9837 41.8594 42.9505 40.8828L44.7 39.1156C45.6668 38.1391 45.6668 36.5563 44.7 35.5797L39.1746 30L44.6985 24.4188C45.6653 23.4422 45.6653 21.8594 44.6985 20.8828L42.949 19.1156C41.9822 18.1391 40.4152 18.1391 39.4484 19.1156L30.4239 28.2312C29.4571 29.2078 29.4571 30.7906 30.4239 31.7672L39.45 40.8828ZM54.3015 39.1172L56.051 40.8844C57.0178 41.8609 58.5848 41.8609 59.5516 40.8844L68.5761 31.7688C69.5429 30.7922 69.5429 29.2094 68.5761 28.2328L59.5516 19.1172C58.5848 18.1406 57.0178 18.1406 56.051 19.1172L54.3015 20.8844C53.3347 21.8609 53.3347 23.4437 54.3015 24.4203L59.8254 30L54.3015 35.5812C53.3347 36.5578 53.3347 38.1406 54.3015 39.1172ZM96.525 65H59.0195C58.905 68.0953 56.744 70 53.955 70H44.55C41.6589 70 39.4422 67.2703 39.4809 65H2.475C1.11375 65 0 66.125 0 67.5V70C0 75.5 4.455 80 9.9 80H89.1C94.545 80 99 75.5 99 70V67.5C99 66.125 97.8862 65 96.525 65ZM89.1 7.5C89.1 3.375 85.7587 0 81.675 0H17.325C13.2412 0 9.9 3.375 9.9 7.5V60H89.1V7.5ZM79.2 50H19.8V10H79.2V50Z" fill="#2F80ED"/>
</svg>
