<svg width="20" height="20" viewBox="0 0 20 20" fill="none" xmlns="http://www.w3.org/2000/svg">
<path d="M14.4978 11.962C14.2545 11.837 13.0425 11.2432 12.817 11.1629C12.5916 11.078 12.4264 11.0379 12.2635 11.2879C12.0983 11.5356 11.6295 12.087 11.4822 12.2544C11.3394 12.4196 11.1943 12.4396 10.951 12.3169C9.50453 11.5937 8.55587 11.0267 7.60274 9.39054C7.35051 8.95527 7.85497 8.98652 8.32596 8.04679C8.40631 7.88161 8.36614 7.74098 8.30364 7.61598C8.24114 7.49098 7.75006 6.28116 7.54471 5.78786C7.34605 5.30795 7.14069 5.37491 6.99114 5.36598C6.84828 5.35706 6.68533 5.35706 6.52015 5.35706C6.35498 5.35706 6.08935 5.41956 5.8639 5.66286C5.63846 5.91063 5.0023 6.50661 5.0023 7.71643C5.0023 8.92625 5.88399 10.0981 6.00453 10.2633C6.12953 10.4285 7.7389 12.9106 10.2099 13.9798C11.7724 14.6539 12.384 14.712 13.1652 14.5959C13.6407 14.5245 14.6206 14.0021 14.8237 13.424C15.0268 12.8481 15.0268 12.3548 14.9666 12.2521C14.9063 12.1428 14.7411 12.0803 14.4978 11.962Z" fill="white"/>
<path d="M19.2233 6.125C18.7189 4.92634 17.9957 3.85045 17.0738 2.92634C16.1519 2.00446 15.076 1.27902 13.8751 0.776786C12.6474 0.261161 11.3439 0 10.0001 0H9.95548C8.60281 0.00669643 7.29254 0.274554 6.06039 0.801339C4.87066 1.31027 3.8037 2.03348 2.89075 2.95536C1.97781 3.87723 1.26129 4.94866 0.765752 6.14286C0.252359 7.37946 -0.00656979 8.6942 0.000126635 10.0469C0.00682306 11.596 0.377359 13.1339 1.07156 14.5089V17.9018C1.07156 18.4688 1.53138 18.9286 2.09834 18.9286H5.49343C6.86843 19.6228 8.40638 19.9933 9.95548 20H10.0024C11.3394 20 12.6363 19.7411 13.8573 19.2344C15.0515 18.7366 16.1251 18.0223 17.0448 17.1094C17.9666 16.1964 18.6921 15.1295 19.1988 13.9397C19.7256 12.7076 19.9934 11.3973 20.0001 10.0446C20.0068 8.68527 19.7434 7.36607 19.2233 6.125ZM15.8506 15.9018C14.2858 17.4509 12.2099 18.3036 10.0001 18.3036H9.96218C8.6162 18.2969 7.27915 17.9621 6.09834 17.3326L5.91084 17.2321H2.76798V14.0893L2.66754 13.9018C2.03807 12.721 1.70325 11.3839 1.69656 10.0379C1.68763 7.8125 2.53807 5.72321 4.09834 4.14955C5.65638 2.57589 7.73897 1.70536 9.96441 1.69643H10.0024C11.1184 1.69643 12.201 1.91295 13.2211 2.34152C14.2166 2.75893 15.1095 3.35938 15.8774 4.12723C16.643 4.89286 17.2457 5.78795 17.6631 6.78348C18.0961 7.81473 18.3126 8.90848 18.3082 10.0379C18.2948 12.2612 17.422 14.3438 15.8506 15.9018Z" fill="white"/>
</svg>
